<?xml version="1.0" standalone="no"?>
<!DOCTYPE svg PUBLIC "-//W3C//DTD SVG 20010904//EN"
 "http://www.w3.org/TR/2001/REC-SVG-20010904/DTD/svg10.dtd">
<svg version="1.0" xmlns="http://www.w3.org/2000/svg"
 width="238.000000pt" height="212.000000pt" viewBox="0 0 238.000000 212.000000"
 preserveAspectRatio="xMidYMid meet">

<g transform="translate(0.000000,212.000000) scale(0.100000,-0.100000)"
fill="#000000" stroke="none">
<path d="M1094 2034 c-15 -4 -27 -20 -39 -52 -28 -76 -75 -152 -93 -152 -35 0
-44 15 -21 36 22 19 49 66 49 82 0 6 -7 13 -16 16 -8 3 -12 2 -9 -4 3 -6 1
-10 -5 -10 -6 0 -8 -4 -5 -10 3 -6 -1 -7 -9 -4 -9 3 -16 9 -16 13 0 4 -17 7
-37 7 -21 -1 -42 3 -46 9 -5 6 -6 -1 -3 -15 5 -23 0 -27 -62 -52 -37 -15 -76
-28 -87 -30 -24 -4 -48 -45 -42 -75 l4 -21 -28 20 c-24 18 -31 19 -44 8 -8 -7
-13 -15 -11 -18 3 -2 -1 -17 -9 -32 -8 -15 -12 -30 -9 -32 2 -3 -7 -4 -21 -3
-30 4 -69 -43 -58 -71 5 -13 3 -16 -10 -11 -11 4 -14 2 -10 -9 3 -9 0 -14 -8
-12 -19 4 -85 -132 -110 -227 -34 -132 -36 -258 -5 -405 14 -69 35 -149 46
-178 24 -64 114 -225 135 -242 8 -7 15 -18 15 -24 1 -6 15 -22 32 -36 17 -14
40 -35 51 -47 32 -36 177 -129 232 -149 28 -10 52 -21 55 -24 3 -3 23 -11 45
-17 164 -47 341 -43 510 12 60 20 116 42 125 50 9 8 20 15 24 15 34 0 235 183
274 250 14 25 29 47 33 50 14 11 78 159 100 233 42 139 52 330 25 467 -23 122
-109 313 -131 293 -4 -5 -5 -3 -2 3 8 13 -70 122 -108 153 l-28 21 -34 -26
-34 -26 7 29 c4 15 12 34 18 42 8 10 3 20 -24 43 -49 42 -223 125 -300 143
-65 16 -266 28 -306 19z m170 -13 c3 -4 -6 -6 -19 -3 -14 2 -25 6 -25 8 0 8
39 4 44 -5z m116 -21 c0 -5 -2 -10 -4 -10 -3 0 -8 5 -11 10 -3 6 -1 10 4 10 6
0 11 -4 11 -10z m-299 -63 c-13 -13 -15 11 -4 40 7 16 8 15 11 -6 2 -13 -1
-28 -7 -34z m-204 -49 c18 -13 33 -27 33 -32 0 -12 -53 3 -66 19 -6 8 -14 12
-17 8 -4 -3 -7 -2 -7 4 0 10 10 23 19 23 2 0 20 -10 38 -22z m-193 -63 c-4 -8
-11 -12 -16 -9 -6 4 -5 10 3 15 19 12 19 11 13 -6z m6 -141 c0 -11 -49 48 -50
59 0 5 11 -5 25 -21 14 -17 25 -34 25 -38z m587 -34 c18 -5 50 -15 71 -21 39
-11 64 -21 147 -60 28 -13 59 -24 70 -24 12 0 25 -12 34 -30 7 -16 33 -62 56
-101 86 -143 110 -276 76 -417 -19 -78 -28 -83 -76 -41 -65 57 -255 248 -255
256 0 4 -8 8 -17 9 -10 0 -13 3 -6 5 9 4 9 11 1 29 -6 14 -15 22 -21 18 -6 -3
-7 -1 -3 5 7 13 -120 272 -134 272 -5 0 -12 -29 -15 -65 -4 -36 -12 -65 -17
-65 -6 0 -7 -7 -4 -16 3 -8 2 -12 -4 -9 -6 3 -10 26 -10 49 0 57 -10 106 -22
106 -5 0 -48 -80 -96 -177 l-86 -177 -121 -118 c-156 -151 -174 -165 -186
-147 -20 31 -42 127 -41 178 3 119 47 251 108 324 13 15 28 46 34 67 9 35 14
40 41 40 30 0 59 13 92 41 10 9 39 22 65 29 26 7 52 17 58 22 6 4 47 11 90 14
43 3 81 7 83 10 8 7 54 4 88 -6z m-62 -722 c15 -24 75 -90 132 -147 57 -58
102 -111 101 -119 -5 -22 -113 -62 -202 -74 -67 -9 -95 -8 -159 5 -90 18 -151
45 -155 68 -2 10 40 59 102 122 68 67 111 119 122 146 9 22 20 41 24 41 4 0
20 -19 35 -42z m-782 -140 c-4 -9 44 -98 66 -121 9 -9 27 -19 39 -22 12 -2 27
-7 32 -10 6 -3 10 -2 10 4 0 5 -6 12 -12 14 -8 3 -6 6 5 6 9 1 34 -10 55 -22
20 -13 55 -27 76 -30 22 -3 43 -12 47 -19 4 -7 11 -9 15 -5 4 4 -1 14 -12 23
-17 14 -18 15 -1 10 10 -3 23 -6 28 -6 5 0 8 -5 7 -12 -2 -7 18 -13 57 -15 43
-3 57 -1 49 7 -6 6 -24 12 -41 13 -17 1 -29 5 -27 9 2 3 -4 9 -13 12 -10 3 -3
4 15 2 23 -2 31 1 28 10 -3 7 18 2 52 -13 55 -25 115 -80 105 -96 -2 -4 -2
-16 2 -27 5 -16 10 -18 31 -10 14 6 32 17 41 26 9 8 22 13 29 10 12 -5 18 5
16 26 -1 3 22 6 50 6 28 1 76 3 107 6 39 4 50 3 36 -3 -11 -5 -37 -10 -57 -10
-21 -1 -38 -5 -38 -11 0 -5 -8 -7 -17 -4 -11 4 -14 2 -8 -3 6 -4 16 -20 22
-35 11 -25 10 -27 -17 -36 -19 -7 -30 -7 -32 0 -2 6 -25 0 -56 -13 -40 -18
-52 -28 -52 -45 0 -13 -5 -35 -10 -49 -9 -24 -14 -26 -43 -20 -17 4 -38 12
-46 19 -8 6 -23 10 -34 8 -49 -9 -212 76 -312 161 -70 60 -85 78 -78 91 4 5 1
6 -5 3 -13 -9 -52 38 -102 123 -43 74 -51 100 -22 73 11 -10 17 -21 15 -25z
m1436 -102 c9 -10 9 -16 1 -21 -6 -4 -15 -17 -20 -30 -6 -17 -15 -22 -28 -18
-12 3 -22 -2 -25 -11 -4 -9 -1 -16 5 -16 16 0 -27 -45 -92 -95 -81 -62 -167
-107 -193 -100 -16 5 -18 4 -8 -3 9 -7 0 -14 -35 -26 -55 -19 -73 -14 -20 5
38 14 48 29 19 29 -13 0 -11 4 7 20 28 24 39 25 55 4 14 -20 25 -15 128 53 66
45 81 63 52 63 -8 0 -15 3 -15 7 0 13 74 83 87 83 7 0 13 4 13 8 0 4 10 8 22
9 12 1 28 9 37 18 14 13 14 15 -2 15 -9 0 -17 5 -17 10 0 14 16 12 29 -4z
m-752 -132 c-3 -3 -12 -4 -19 -1 -8 3 -5 6 6 6 11 1 17 -2 13 -5z m268 -5 c11
-17 2 -18 -19 -3 -17 12 -17 14 -4 14 9 0 20 -5 23 -11z m40 -9 c3 -5 1 -10
-4 -10 -6 0 -11 5 -11 10 0 6 2 10 4 10 3 0 8 -4 11 -10z m80 -45 c14 -13 25
-29 25 -36 0 -6 7 -9 15 -6 19 8 31 -11 16 -26 -8 -8 -14 -7 -23 5 -7 9 -31
18 -54 21 -37 4 -43 2 -68 -29 -30 -38 -42 -41 -67 -18 -22 20 -14 57 12 49
25 -8 100 13 98 28 -5 44 11 48 46 12z"/>
<path d="M918 581 c8 -4 13 -11 13 -15 -3 -18 0 -26 8 -26 5 0 7 10 3 22 -4
17 -2 20 12 15 10 -4 15 -3 11 3 -3 6 -18 10 -33 10 -19 0 -23 -3 -14 -9z"/>
<path d="M750 552 c0 -7 4 -11 9 -7 5 3 17 -5 26 -17 10 -13 15 -16 12 -8 -2
8 -1 22 3 30 6 12 2 15 -21 15 -17 0 -29 -5 -29 -13z"/>
<path d="M980 550 c0 -5 5 -10 11 -10 5 0 7 5 4 10 -3 6 -8 10 -11 10 -2 0 -4
-4 -4 -10z"/>
<path d="M1190 480 c0 -5 5 -10 10 -10 6 0 10 5 10 10 0 6 -4 10 -10 10 -5 0
-10 -4 -10 -10z"/>
</g>
</svg>
